<svg width="763" height="170" viewBox="0 0 763 170" fill="none" xmlns="http://www.w3.org/2000/svg">
<path d="M91.726 163.75C75.0281 165.054 58.3493 161.002 44.1111 152.182C29.873 143.362 18.8168 130.233 12.5479 114.702C6.27897 99.1707 5.12372 82.0455 9.24986 65.813C13.376 49.5806 22.5687 35.0858 35.4933 24.4334C48.4178 13.7809 64.4013 7.52536 81.123 6.57499C97.8447 5.62462 114.434 10.0289 128.482 19.1484C142.531 28.2678 153.306 41.6277 159.245 57.2881C165.184 72.9486 165.976 90.0943 161.508 106.236L145.652 101.846C149.188 89.076 148.561 75.5113 143.862 63.1216C139.164 50.732 130.639 40.1624 119.525 32.9477C108.41 25.7329 95.2858 22.2484 82.0565 23.0003C68.8273 23.7522 56.1821 28.7012 45.9569 37.1288C35.7318 45.5564 28.459 57.0239 25.1946 69.8661C21.9303 82.7083 22.8442 96.2567 27.8038 108.544C32.7634 120.832 41.5105 131.218 52.7749 138.196C64.0393 145.174 77.2346 148.38 90.445 147.348L91.726 163.75Z" fill="#004884"/>
<rect x="107.298" y="136.509" width="25.4815" height="45.0744" transform="rotate(-44.9594 107.298 136.509)" fill="#CD2F39"/>
<path d="M220.827 111.842V73.2101H236.54V139.883H221.304V128.033H220.61C219.105 131.766 216.631 134.819 213.187 137.192C209.772 139.565 205.562 140.752 200.556 140.752C196.186 140.752 192.323 139.782 188.966 137.843C185.638 135.875 183.034 133.025 181.153 129.292C179.272 125.53 178.331 120.987 178.331 115.662V73.2101H194.045V113.231C194.045 117.456 195.202 120.813 197.517 123.302C199.832 125.791 202.871 127.035 206.633 127.035C208.948 127.035 211.19 126.471 213.361 125.342C215.531 124.213 217.311 122.535 218.7 120.307C220.118 118.05 220.827 115.228 220.827 111.842ZM281.781 141.186C275.27 141.186 269.627 139.753 264.852 136.888C260.078 134.023 256.373 130.016 253.74 124.865C251.136 119.714 249.833 113.694 249.833 106.807C249.833 99.9199 251.136 93.8864 253.74 88.7065C256.373 83.5265 260.078 79.5042 264.852 76.6393C269.627 73.7744 275.27 72.342 281.781 72.342C288.292 72.342 293.935 73.7744 298.71 76.6393C303.485 79.5042 307.174 83.5265 309.779 88.7065C312.412 93.8864 313.729 99.9199 313.729 106.807C313.729 113.694 312.412 119.714 309.779 124.865C307.174 130.016 303.485 134.023 298.71 136.888C293.935 139.753 288.292 141.186 281.781 141.186ZM281.868 128.598C285.398 128.598 288.35 127.628 290.723 125.689C293.096 123.721 294.861 121.088 296.019 117.789C297.205 114.49 297.798 110.815 297.798 106.764C297.798 102.684 297.205 98.9939 296.019 95.695C294.861 92.3671 293.096 89.7193 290.723 87.7515C288.35 85.7837 285.398 84.7998 281.868 84.7998C278.251 84.7998 275.241 85.7837 272.839 87.7515C270.466 89.7193 268.687 92.3671 267.5 95.695C266.343 98.9939 265.764 102.684 265.764 106.764C265.764 110.815 266.343 114.49 267.5 117.789C268.687 121.088 270.466 123.721 272.839 125.689C275.241 127.628 278.251 128.598 281.868 128.598ZM360.359 73.2101V85.3641H322.03V73.2101H360.359ZM331.493 57.2363H347.206V119.829C347.206 121.942 347.525 123.562 348.161 124.691C348.827 125.791 349.695 126.543 350.766 126.948C351.836 127.353 353.023 127.556 354.325 127.556C355.309 127.556 356.206 127.483 357.016 127.339C357.856 127.194 358.492 127.064 358.926 126.948L361.574 139.232C360.735 139.522 359.534 139.84 357.971 140.187C356.438 140.534 354.557 140.737 352.328 140.795C348.393 140.911 344.848 140.317 341.694 139.015C338.539 137.684 336.036 135.629 334.184 132.851C332.361 130.073 331.464 126.601 331.493 122.434V57.2363ZM373.5 139.883V73.2101H389.214V139.883H373.5ZM381.4 63.7474C378.912 63.7474 376.77 62.9227 374.976 61.2732C373.182 59.5948 372.285 57.5836 372.285 55.2396C372.285 52.8667 373.182 50.8555 374.976 49.206C376.77 47.5276 378.912 46.6884 381.4 46.6884C383.918 46.6884 386.059 47.5276 387.825 49.206C389.619 50.8555 390.516 52.8667 390.516 55.2396C390.516 57.5836 389.619 59.5948 387.825 61.2732C386.059 62.9227 383.918 63.7474 381.4 63.7474ZM434.889 141.186C428.204 141.186 422.431 139.797 417.569 137.019C412.737 134.212 409.018 130.247 406.414 125.125C403.809 119.974 402.507 113.911 402.507 106.937C402.507 100.079 403.809 94.06 406.414 88.8801C409.047 83.6712 412.722 79.6199 417.439 76.7261C422.156 73.8034 427.698 72.342 434.064 72.342C438.173 72.342 442.051 73.0076 445.697 74.3387C449.372 75.6409 452.613 77.6666 455.42 80.4157C458.256 83.1648 460.484 86.6663 462.105 90.9202C463.725 95.1452 464.536 100.18 464.536 106.026V110.844H409.886V100.253H449.473C449.444 97.2432 448.793 94.5664 447.52 92.2224C446.247 89.8495 444.467 87.983 442.181 86.6229C439.924 85.2628 437.291 84.5828 434.281 84.5828C431.069 84.5828 428.247 85.3641 425.817 86.9268C423.386 88.4605 421.49 90.4861 420.13 93.0038C418.799 95.4924 418.119 98.2271 418.09 101.208V110.453C418.09 114.331 418.799 117.659 420.217 120.437C421.635 123.186 423.617 125.299 426.164 126.774C428.71 128.221 431.691 128.945 435.106 128.945C437.392 128.945 439.461 128.626 441.313 127.99C443.165 127.324 444.771 126.355 446.131 125.082C447.491 123.808 448.518 122.231 449.213 120.35L463.885 122C462.959 125.877 461.193 129.263 458.589 132.157C456.013 135.022 452.714 137.25 448.692 138.842C444.67 140.404 440.069 141.186 434.889 141.186ZM493.542 100.817V139.883H477.829V73.2101H492.848V84.5394H493.629C495.163 80.8064 497.608 77.8402 500.965 75.6409C504.351 73.4416 508.532 72.342 513.51 72.342C518.111 72.342 522.119 73.3259 525.533 75.2937C528.977 77.2615 531.639 80.1119 533.52 83.8449C535.43 87.5779 536.371 92.1067 536.342 97.4313V139.883H520.628V99.8621C520.628 95.4056 519.471 91.9186 517.156 89.401C514.87 86.8834 511.701 85.6246 507.65 85.6246C504.901 85.6246 502.455 86.2323 500.314 87.4476C498.201 88.6341 496.538 90.3559 495.322 92.6131C494.136 94.8703 493.542 97.6049 493.542 100.817Z" fill="#004884"/>
<path d="M553.01 139.883V50.9857H569.114V126.384H608.267V139.883H553.01ZM621.55 139.883V73.2101H637.263V139.883H621.55ZM629.45 63.7474C626.961 63.7474 624.82 62.9227 623.026 61.2732C621.232 59.5948 620.335 57.5836 620.335 55.2396C620.335 52.8667 621.232 50.8555 623.026 49.206C624.82 47.5276 626.961 46.6884 629.45 46.6884C631.968 46.6884 634.109 47.5276 635.874 49.206C637.668 50.8555 638.565 52.8667 638.565 55.2396C638.565 57.5836 637.668 59.5948 635.874 61.2732C634.109 62.9227 631.968 63.7474 629.45 63.7474ZM687.192 73.2101V85.3641H647.779V73.2101H687.192ZM657.632 139.883V66.9161C657.632 62.4307 658.558 58.6977 660.41 55.7171C662.291 52.7365 664.809 50.5082 667.963 49.0324C671.117 47.5565 674.619 46.8186 678.467 46.8186C681.188 46.8186 683.604 47.0357 685.716 47.4697C687.829 47.9038 689.392 48.2945 690.404 48.6417L687.279 60.7957C686.613 60.5931 685.774 60.3906 684.761 60.188C683.749 59.9565 682.62 59.8408 681.376 59.8408C678.453 59.8408 676.384 60.5497 675.168 61.9677C673.982 63.3567 673.389 65.3534 673.389 67.9579V139.883H657.632ZM726.508 141.186C719.823 141.186 714.05 139.797 709.189 137.019C704.356 134.212 700.638 130.247 698.033 125.125C695.429 119.974 694.127 113.911 694.127 106.937C694.127 100.079 695.429 94.06 698.033 88.8801C700.667 83.6712 704.342 79.6199 709.059 76.7261C713.775 73.8034 719.317 72.342 725.683 72.342C729.793 72.342 733.67 73.0076 737.317 74.3387C740.992 75.6409 744.233 77.6666 747.04 80.4157C749.876 83.1648 752.104 86.6663 753.724 90.9202C755.345 95.1452 756.155 100.18 756.155 106.026V110.844H701.506V100.253H741.093C741.064 97.2432 740.413 94.5664 739.14 92.2224C737.866 89.8495 736.087 87.983 733.801 86.6229C731.543 85.2628 728.91 84.5828 725.9 84.5828C722.688 84.5828 719.867 85.3641 717.436 86.9268C715.005 88.4605 713.11 90.4861 711.75 93.0038C710.419 95.4924 709.739 98.2271 709.71 101.208V110.453C709.71 114.331 710.419 117.659 711.837 120.437C713.255 123.186 715.237 125.299 717.783 126.774C720.33 128.221 723.311 128.945 726.725 128.945C729.011 128.945 731.08 128.626 732.932 127.99C734.784 127.324 736.391 126.355 737.751 125.082C739.111 123.808 740.138 122.231 740.833 120.35L755.504 122C754.578 125.877 752.813 129.263 750.208 132.157C747.633 135.022 744.334 137.25 740.312 138.842C736.289 140.404 731.688 141.186 726.508 141.186Z" fill="#CD2F39"/>
</svg>
